HIERARCHY
ROOT joint_Root
{
	OFFSET 0.0 0.0 0.0
	CHANNELS 6 Xposition Yposition Zposition Zrotation Xrotation Yrotation 
	JOINT Hips
	{
		OFFSET 4.5925 91.4895 -427.239
		CHANNELS 6 Xposition Yposition Zposition Zrotation Xrotation Yrotation 
		JOINT Spine
		{
			OFFSET 15.7357 0.0 0.0
			CHANNELS 6 Xposition Yposition Zposition Zrotation Xrotation Yrotation 
			JOINT Chest
			{
				OFFSET 8.98455 -0.406207 0.0
				CHANNELS 6 Xposition Yposition Zposition Zrotation Xrotation Yrotation 
				JOINT Neck
				{
					OFFSET 16.3773 0.0 0.0
					CHANNELS 6 Xposition Yposition Zposition Zrotation Xrotation Yrotation 
					JOINT Head
					{
						OFFSET 6.45672 0.0 0.0
						CHANNELS 6 Xposition Yposition Zposition Zrotation Xrotation Yrotation 
						End Site
						{
							OFFSET 0.0 0.0 0.0
						}
					}
				}
				JOINT Shoulder_L
				{
					OFFSET 12.9942 -0.242716 4.98039
					CHANNELS 6 Xposition Yposition Zposition Zrotation Xrotation Yrotation 
					JOINT UpperArm_L
					{
						OFFSET 5.34809 0.0 0.0
						CHANNELS 6 Xposition Yposition Zposition Zrotation Xrotation Yrotation 
						JOINT LowerArm_L
						{
							OFFSET 24.3286 1.87007e-05 0.0
							CHANNELS 6 Xposition Yposition Zposition Zrotation Xrotation Yrotation 
							JOINT Hand_L
							{
								OFFSET 22.2916 0.0 0.0
								CHANNELS 6 Xposition Yposition Zposition Zrotation Xrotation Yrotation 
								End Site
								{
									OFFSET 0.0 0.0 0.0
								}
							}
						}
					}
				}
				JOINT Shoulder_R
				{
					OFFSET 12.9945 -0.242716 -4.98039
					CHANNELS 6 Xposition Yposition Zposition Zrotation Xrotation Yrotation 
					JOINT UpperArm_R
					{
						OFFSET -5.34813 0.0 0.0
						CHANNELS 6 Xposition Yposition Zposition Zrotation Xrotation Yrotation 
						JOINT LowerArm_R
						{
							OFFSET -24.3289 0.000322201 0.0
							CHANNELS 6 Xposition Yposition Zposition Zrotation Xrotation Yrotation 
							JOINT Hand_R
							{
								OFFSET -22.2915 -0.000108084 0.0
								CHANNELS 6 Xposition Yposition Zposition Zrotation Xrotation Yrotation 
								End Site
								{
									OFFSET 0.0 0.0 0.0
								}
							}
						}
					}
				}
			}
		}
		JOINT UpperLeg_L
		{
			OFFSET -2.19248 -6.46944 0.0
			CHANNELS 6 Xposition Yposition Zposition Zrotation Xrotation Yrotation 
			JOINT LowerLeg_L
			{
				OFFSET 39.0811 0.0 -1.23785e-05
				CHANNELS 6 Xposition Yposition Zposition Zrotation Xrotation Yrotation 
				JOINT Foot_L
				{
					OFFSET 40.9854 0.0 -1.26872e-05
					CHANNELS 6 Xposition Yposition Zposition Zrotation Xrotation Yrotation 
					JOINT Toes_L
					{
						OFFSET 11.7543 0.0 0.0
						CHANNELS 6 Xposition Yposition Zposition Zrotation Xrotation Yrotation 
						End Site
						{
							OFFSET 0.0 0.0 0.0
						}
					}
				}
			}
		}
		JOINT UpperLeg_R
		{
			OFFSET -2.19251 6.46944 0.0
			CHANNELS 6 Xposition Yposition Zposition Zrotation Xrotation Yrotation 
			JOINT LowerLeg_R
			{
				OFFSET -39.0811 -0.00228153 -0.0401928
				CHANNELS 6 Xposition Yposition Zposition Zrotation Xrotation Yrotation 
				JOINT Foot_R
				{
					OFFSET -40.9854 0.0 0.0
					CHANNELS 6 Xposition Yposition Zposition Zrotation Xrotation Yrotation 
					JOINT Toes_R
					{
						OFFSET -11.7543 0.0 0.0
						CHANNELS 6 Xposition Yposition Zposition Zrotation Xrotation Yrotation 
						End Site
						{
							OFFSET 0.0 0.0 0.0
						}
					}
				}
			}
		}
	}
}
MOTION
Frames:	8
Frame Time:	0.0333333
0.000000 0.000000 0.000000 0.000000 0.000000 -0.000000 0.566617 80.589200 -466.560000 85.158800 3.079350 -20.459800 15.735700 0.000005 -0.000001 69.381300 79.641900 -70.297100 8.984550 -0.406207 -0.000000 11.633200 -7.265740 -1.091540 16.377300 -0.000001 -0.000001 -3.086650 -2.276010 1.831390 6.456720 -0.000001 -0.000000 -16.154100 0.672732 8.023400 12.994200 -0.242716 4.980390 -86.904400 -12.931000 -76.416200 5.348090 -0.000007 -0.000001 -64.103100 -10.032400 -59.517600 24.328600 0.000019 0.000005 14.475100 -1.131530 -94.370700 22.291600 -0.000001 0.000005 9.542970 5.479790 -5.740570 12.994500 -0.242716 -4.980390 90.744600 -2.194860 -71.278300 -5.348130 -0.000001 -0.000004 -47.457300 19.542900 13.468200 -24.328900 0.000322 -0.000009 1.554880 4.832820 -17.846900 -22.291500 -0.000108 -0.000004 2.459870 5.312970 -0.293528 -2.192480 -6.469440 -0.000000 -175.354000 -6.810310 -30.378300 39.081100 -0.000007 -0.000012 0.040546 -0.020491 63.183300 40.985400 -0.000006 -0.000013 1.147710 -2.613300 -88.558700 11.754300 -0.000000 0.000003 -0.085949 -0.408280 -33.554100 -2.192510 6.469440 -0.000001 -176.017000 4.545630 126.146000 -39.081100 -0.002282 -0.040193 0.153201 0.065712 113.705000 -40.985400 0.000008 0.000006 2.965730 0.198611 -44.724800 -11.754300 -0.000006 -0.000006 -0.025292 -0.195011 -24.552000
0.000000 0.000000 0.000000 0.000000 0.000000 -0.000000 0.485815 82.657800 -457.136000 82.612500 3.605240 -20.312100 15.735700 0.000005 -0.000001 65.125300 79.666000 -64.498000 8.984550 -0.406207 -0.000000 11.124300 -8.609880 2.096000 16.377300 -0.000001 -0.000001 -1.778130 -1.633440 1.850970 6.456720 -0.000001 -0.000000 -15.199600 2.427820 7.395590 12.994200 -0.242716 4.980390 -85.798400 -15.959300 -75.041800 5.348090 -0.000007 -0.000001 -64.242100 -13.739100 -60.089100 24.328600 0.000019 0.000005 13.356700 -2.563100 -100.675000 22.291600 -0.000001 0.000005 8.930880 5.471460 -5.421120 12.994500 -0.242716 -4.980390 91.800300 -4.772980 -69.313300 -5.348130 -0.000001 -0.000004 -40.704600 21.563400 17.202800 -24.328900 0.000322 -0.000009 2.235330 4.821070 -24.958000 -22.291500 -0.000108 -0.000004 3.283600 5.385660 -2.470200 -2.192480 -6.469440 -0.000000 -171.285000 -9.503240 -18.831500 39.081100 -0.000007 -0.000012 0.022385 -0.017590 51.834900 40.985400 -0.000006 -0.000013 0.955677 0.735195 -81.484900 11.754300 -0.000000 0.000003 -0.172713 -0.597743 -42.010300 -2.192510 6.469440 -0.000001 -171.708000 2.053950 118.606000 -39.081100 -0.002282 -0.040193 -0.003346 -0.003101 114.295000 -40.985400 0.000008 0.000006 7.709080 -9.119280 -52.728500 -11.754300 -0.000006 -0.000006 -0.025148 -0.194296 -24.522400
0.000000 0.000000 0.000000 0.000000 0.000000 -0.000000 0.501176 85.718900 -447.090000 80.698500 5.584850 -21.771300 15.735700 0.000005 -0.000001 58.241000 80.046300 -55.899800 8.984550 -0.406207 -0.000000 9.494610 -10.384700 5.553510 16.377300 -0.000001 -0.000001 -0.516464 -1.230730 2.047890 6.456720 -0.000001 -0.000000 -13.416600 4.565170 6.050560 12.994200 -0.242716 4.980390 -85.187500 -17.622500 -74.459000 5.348090 -0.000007 -0.000001 -63.653200 -13.961700 -57.049000 24.328600 0.000019 0.000005 11.729500 -3.571130 -106.701000 22.291600 -0.000001 0.000005 8.732290 5.439440 -4.267220 12.994500 -0.242716 -4.980390 93.403300 -8.479310 -68.038300 -5.348130 -0.000001 -0.000004 -39.666100 21.981000 21.136200 -24.328900 0.000322 -0.000009 0.823168 1.465540 -29.401900 -22.291500 -0.000108 -0.000004 4.516090 5.458310 -4.918880 -2.192480 -6.469440 -0.000000 -167.578000 -10.363300 -9.548640 39.081100 -0.000007 -0.000012 0.019211 -0.024929 37.616800 40.985400 -0.000006 -0.000013 0.645837 3.652370 -64.024600 11.754300 -0.000000 0.000003 -0.377586 -0.880443 -56.202400 -2.192510 6.469440 -0.000001 -168.845000 0.108611 113.648000 -39.081100 -0.002282 -0.040193 0.048143 0.014055 107.519000 -40.985400 0.000008 0.000006 9.453410 -13.102400 -59.181100 -11.754300 -0.000006 -0.000006 -0.024816 -0.192639 -24.453900
0.000000 0.000000 0.000000 0.000000 0.000000 -0.000000 0.502097 89.152900 -437.109000 80.435700 8.181840 -24.128300 15.735700 0.000005 -0.000001 49.657200 80.326700 -45.977400 8.984550 -0.406207 -0.000000 7.530380 -12.486500 8.200190 16.377300 -0.000001 -0.000001 1.311150 -0.996858 2.383340 6.456720 -0.000001 -0.000000 -12.537600 6.182030 4.756430 12.994200 -0.242716 4.980390 -84.890000 -18.156700 -73.988400 5.348090 -0.000007 -0.000001 -62.476300 -10.949300 -53.638800 24.328600 0.000019 0.000005 11.108800 -4.425350 -111.456000 22.291600 -0.000001 0.000005 8.964040 5.425130 -3.773030 12.994500 -0.242716 -4.980390 95.249700 -12.620400 -67.192600 -5.348130 -0.000001 -0.000004 -43.585800 20.484500 25.343700 -24.328900 0.000322 -0.000009 -1.209320 -1.879130 -32.677200 -22.291500 -0.000108 -0.000004 6.146220 5.512560 -7.035840 -2.192480 -6.469440 -0.000000 -164.921000 -14.756300 -3.953890 39.081100 -0.000007 -0.000012 0.052624 -0.119412 23.782800 40.985400 -0.000006 -0.000013 -2.110780 8.612230 -37.719300 11.754300 -0.000000 0.000003 -0.382676 -0.885867 -56.504000 -2.192510 6.469440 -0.000001 -168.184000 -0.436388 110.539000 -39.081100 -0.002282 -0.040193 0.140230 0.013975 95.864100 -40.985400 0.000008 0.000006 8.581970 -13.018400 -64.119400 -11.754300 -0.000006 -0.000006 -0.024633 -0.191719 -24.415900
0.000000 0.000000 0.000000 0.000000 0.000000 -0.000000 0.702175 91.744000 -427.195000 81.777600 8.985710 -25.646200 15.735700 0.000005 -0.000001 43.923500 80.357600 -39.712300 8.984550 -0.406207 -0.000000 6.285030 -13.908300 9.213300 16.377300 -0.000001 -0.000001 4.543720 -0.221442 2.284180 6.456720 -0.000001 -0.000000 -14.320000 7.104470 3.573560 12.994200 -0.242716 4.980390 -84.572400 -18.414400 -73.259600 5.348090 -0.000007 -0.000001 -61.645300 -6.085630 -51.023300 24.328600 0.000019 0.000005 11.035400 -5.111270 -114.552000 22.291600 -0.000001 0.000005 8.994120 5.411470 -3.313850 12.994500 -0.242716 -4.980390 96.590200 -15.500600 -66.621200 -5.348130 -0.000001 -0.000004 -48.795400 21.625400 29.861100 -24.328900 0.000322 -0.000009 -3.803000 -4.781990 -38.544200 -22.291500 -0.000108 -0.000004 7.408460 5.547080 -8.559660 -2.192480 -6.469440 -0.000000 -163.066000 -22.471700 1.226030 39.081100 -0.000007 -0.000012 0.077940 -0.285808 15.253900 40.985400 -0.000006 -0.000013 -10.941300 7.297490 -22.393900 11.754300 -0.000000 0.000003 -0.001555 -0.023006 -17.512300 -2.192510 6.469440 -0.000001 -169.452000 -0.017053 110.548000 -39.081100 -0.002282 -0.040193 0.157439 -0.023088 81.509800 -40.985400 0.000008 0.000006 6.977420 -9.728760 -67.772600 -11.754300 -0.000006 -0.000006 -0.026315 -0.200050 -24.760500
0.000000 0.000000 0.000000 0.000000 0.000000 -0.000000 1.101550 92.760000 -417.325000 83.293000 9.190900 -25.913500 15.735700 0.000005 -0.000001 40.406500 80.063900 -36.019700 8.984550 -0.406207 -0.000000 5.878390 -15.169600 9.587940 16.377300 -0.000001 -0.000001 5.922760 0.529060 1.582350 6.456720 -0.000001 -0.000000 -14.540200 7.908930 3.043680 12.994200 -0.242716 4.980390 -84.270000 -18.301700 -72.279000 5.348090 -0.000007 -0.000001 -60.493800 -0.591027 -48.567600 24.328600 0.000019 0.000005 11.235000 -5.693620 -116.539000 22.291600 -0.000001 0.000005 9.336310 5.393860 -2.740870 12.994500 -0.242716 -4.980390 97.027500 -16.245300 -66.218800 -5.348130 -0.000001 -0.000004 -52.712400 23.375300 33.656200 -24.328900 0.000322 -0.000009 -4.882590 -4.590040 -46.855700 -22.291500 -0.000108 -0.000004 8.769770 5.568370 -9.602460 -2.192480 -6.469440 -0.000000 -160.709000 -26.608300 3.874890 39.081100 -0.000007 -0.000012 0.089574 -0.224303 21.769000 40.985400 -0.000006 -0.000013 -12.700500 5.704020 -27.571900 11.754300 -0.000000 0.000003 -0.004057 -0.052044 -18.693800 -2.192510 6.469440 -0.000001 -169.947000 1.959370 113.278000 -39.081100 -0.002282 -0.040193 0.104348 -0.046031 65.538800 -40.985400 0.000008 0.000006 4.914520 -4.574310 -71.595400 -11.754300 -0.000006 -0.000006 -0.026918 -0.202976 -24.881600
0.000000 0.000000 0.000000 0.000000 0.000000 -0.000000 1.498340 92.845800 -407.351000 85.832200 9.469780 -24.620600 15.735700 0.000005 -0.000001 39.471800 79.353000 -35.435000 8.984550 -0.406207 -0.000000 6.578310 -16.434400 9.059550 16.377300 -0.000001 -0.000001 5.955760 0.320420 1.454180 6.456720 -0.000001 -0.000000 -14.301800 8.768720 2.215420 12.994200 -0.242716 4.980390 -84.393500 -17.302100 -71.733800 5.348090 -0.000007 -0.000001 -59.238500 5.583390 -46.321500 24.328600 0.000019 0.000005 10.866400 -5.754330 -117.579000 22.291600 -0.000001 0.000005 9.299950 5.387320 -2.529990 12.994500 -0.242716 -4.980390 96.725100 -14.709500 -65.089100 -5.348130 -0.000001 -0.000004 -54.773700 22.422000 34.477700 -24.328900 0.000322 -0.000009 -6.390000 -4.651110 -54.078400 -22.291500 -0.000108 -0.000004 9.358800 5.579230 -10.168700 -2.192480 -6.469440 -0.000000 -160.908000 -22.674200 6.876600 39.081100 -0.000007 -0.000012 0.153085 -0.264398 30.070600 40.985400 -0.000006 -0.000013 -6.519890 1.353220 -29.524100 11.754300 -0.000000 0.000003 -0.003492 -0.046054 -18.449900 -2.192510 6.469440 -0.000001 -169.449000 6.384520 119.180000 -39.081100 -0.002282 -0.040193 0.012537 -0.008652 47.004100 -40.985400 0.000008 0.000006 2.255660 1.007250 -74.481700 -11.754300 -0.000006 -0.000006 -0.030005 -0.217487 -25.483000
0.000000 0.000000 0.000000 0.000000 0.000000 -0.000000 1.935130 91.821700 -397.041000 88.361200 9.562960 -22.220100 15.735700 0.000005 -0.000001 40.970600 78.673500 -37.372800 8.984550 -0.406207 -0.000000 7.903690 -17.034900 8.415600 16.377300 -0.000001 -0.000001 5.855960 -0.109434 1.268200 6.456720 -0.000001 -0.000000 -14.448400 9.129960 1.233200 12.994200 -0.242716 4.980390 -84.973400 -16.066000 -72.368900 5.348090 -0.000007 -0.000001 -59.862000 12.505200 -42.431900 24.328600 0.000019 0.000005 9.597710 -5.036050 -117.435000 22.291600 -0.000001 0.000005 9.271450 5.396710 -2.832580 12.994500 -0.242716 -4.980390 95.945300 -12.607800 -64.494000 -5.348130 -0.000001 -0.000004 -57.364200 19.129200 33.526200 -24.328900 0.000322 -0.000009 -8.110970 -4.951280 -58.793700 -22.291500 -0.000108 -0.000004 11.352300 5.589900 -10.732100 -2.192480 -6.469440 -0.000000 -164.747000 -12.484200 9.828910 39.081100 -0.000007 -0.000012 0.182141 -0.220530 39.554000 40.985400 -0.000006 -0.000013 -4.195900 -2.999180 -30.534200 11.754300 -0.000000 0.000003 -0.003604 -0.047259 -18.499000 -2.192510 6.469440 -0.000001 -166.463000 13.676000 124.776000 -39.081100 -0.002282 -0.040193 -0.072981 0.120403 32.355100 -40.985400 0.000008 0.000006 -2.276810 6.930880 -73.871500 -11.754300 -0.000006 -0.000006 -0.030968 -0.221864 -25.664700
